<svg width="169" height="54" viewBox="0 0 169 54" fill="none" xmlns="http://www.w3.org/2000/svg">
<path d="M70.5938 12.8127C70.5938 12.8127 67.8951 10.308 63.2687 11.2713C58.6424 12.2347 55.7509 15.8954 56.3292 20.5194C56.9075 25.1434 60.3772 27.4555 63.6542 27.8408C66.9312 28.2261 70.2082 27.0701 71.1721 25.9141V19.4828H68.2806V24.3728C68.2806 24.3728 67.0508 25.5731 63.714 24.9739C60.3772 24.3747 59.0279 21.0974 59.7989 17.822C60.57 14.5467 65.0036 12.62 69.2444 15.1247C70.0155 13.776 70.5938 12.8127 70.5938 12.8127Z" fill="#151E46"/>
<path d="M85.534 22.3493C85.534 22.3493 88.811 20.8079 88.811 16.9546C88.811 13.1012 85.1484 11.3672 81.8714 11.3672H76.2812V27.744H79.3655V23.12H82.257L85.534 27.744H89.1965L85.534 22.3493ZM85.4376 17.1472C85.4376 18.9024 84.013 20.3263 82.257 20.3263H79.4619V13.9682H82.257C84.013 13.9682 85.4376 15.392 85.4376 17.1472Z" fill="#151E46"/>
<path d="M104.713 27.744H108.065L100.944 11.3672H98.8316L91.5605 27.744L94.88 27.8403L96.2563 24.4686H103.373L104.711 27.744H104.713ZM97.3589 21.7713L99.8128 15.7581L102.271 21.7713H97.3589Z" fill="#151E46"/>
<path d="M88.9082 48.9374H92.2604L85.1396 32.5605H83.0269L75.7559 48.9374L79.0753 49.0337L80.4516 45.662H87.5685L88.9063 48.9374H88.9082ZM81.5542 42.9646L84.0081 36.9515L86.4659 42.9646H81.5542Z" fill="#151E46"/>
<path d="M64.8586 32.4648C60.0954 32.4648 56.2324 36.218 56.2324 40.8459C56.2324 45.4738 60.0954 49.227 64.8586 49.227C69.6219 49.227 73.4849 45.4738 73.4849 40.8459C73.4849 36.218 69.6219 32.4648 64.8586 32.4648ZM64.8586 46.4333C61.8515 46.4333 59.413 43.9325 59.413 40.8459C59.413 37.7594 61.8515 35.2585 64.8586 35.2585C67.8658 35.2585 70.3043 37.7594 70.3043 40.8459C70.3043 43.9325 67.8658 46.4333 64.8586 46.4333Z" fill="#151E46"/>
<path d="M111.844 27.8406L111.748 11.1748H113.676L123.507 22.1569V11.3675H126.591V27.937H124.758L114.929 16.8585V27.8406H111.844Z" fill="#151E46"/>
<path d="M135.459 11.3672H132.375V27.9367H135.459V11.3672Z" fill="#151E46"/>
<path d="M153.773 11.1748H139.701V14.2575H145.291V27.937H148.376V14.2575H153.773V11.1748Z" fill="#151E46"/>
<path d="M169.001 14.2575V11.1748H160.905H159.362H157.82V27.7443H159.362H160.905H169.001V24.6616H160.905V21.0009H168.037V17.9182H160.905V14.2575H169.001Z" fill="#151E46"/>
<path d="M109.873 49.0337L102.015 40.5563L109.533 32.6569L105.884 32.5605L99.2204 39.6527V32.5605H95.9434V48.9374H99.2204V42.0186L105.934 49.0337H109.873Z" fill="#151E46"/>
<path d="M52.764 26.5882C52.764 11.9281 41.0035 0 26.548 0C12.0926 0 0.332031 11.9281 0.332031 26.5882C0.332031 41.2484 12.0926 53.1765 26.548 53.1765C30.5132 53.1765 34.276 52.2767 37.6493 50.6718C37.8787 50.5735 38.0715 50.4772 38.2219 50.3905C46.8346 46.0285 52.764 36.9981 52.764 26.5882ZM1.87415 26.5882C1.87415 12.7778 12.9427 1.54135 26.548 1.54135C40.1534 1.54135 51.2219 12.7778 51.2219 26.5882C51.2219 36.3257 45.7185 44.7819 37.7053 48.9243L37.6898 48.905C37.6725 48.9185 37.6127 48.9609 37.5144 49.0206C37.3274 49.115 37.1404 49.2075 36.9515 49.2961C35.5579 49.8549 32.2577 50.3886 27.5119 46.2192V37.946C29.5359 39.5201 32.0784 40.4584 34.8369 40.4584C41.4275 40.4584 46.7883 35.1003 46.7883 28.513C46.7883 23.4169 43.5807 19.0568 39.0777 17.3459C39.0777 17.895 39.0411 18.4345 38.9717 18.9663C42.6612 20.5674 45.2462 24.2435 45.2462 28.513C45.2462 34.2507 40.5774 38.9171 34.8369 38.9171C32.0746 38.9171 29.5609 37.8362 27.6969 36.0772C29.239 34.1967 30.2202 31.8404 30.3802 29.2625C29.8674 29.4282 29.3373 29.5611 28.7976 29.6594C28.5817 31.6323 27.8087 33.4415 26.6444 34.925C25.4859 33.4492 24.7168 31.6516 24.4951 29.6921C24.4508 29.3049 24.4276 28.9118 24.4276 28.513V28.5072C24.4276 28.3762 24.4295 28.2452 24.4353 28.1161C24.4508 27.725 24.4874 27.3377 24.5433 26.9582C24.7804 25.3841 25.3722 23.9256 26.2319 22.6655C25.9813 22.3149 25.6093 21.8178 25.2392 21.4016C24.1365 22.8832 23.3713 24.6269 23.0532 26.5227C22.9857 26.9081 22.9395 27.303 22.9125 27.7019C22.9028 27.8348 22.8971 27.9677 22.8932 28.1026C22.8874 28.2394 22.8855 28.3762 22.8855 28.513C22.8855 28.7866 22.8951 29.0563 22.9125 29.3241C23.084 31.877 24.0614 34.2121 25.5919 36.0772C23.7279 37.8362 21.2142 38.9171 18.4519 38.9171C12.7114 38.9171 8.04262 34.2507 8.04262 28.513C8.04262 24.3128 10.5447 20.6868 14.1359 19.0472C14.0607 18.5135 14.0222 17.9702 14.0203 17.4191C9.61751 19.1801 6.5005 23.4901 6.5005 28.513C6.5005 35.1003 11.8613 40.4584 18.4519 40.4584C21.299 40.4584 23.9149 39.4566 25.9697 37.79V46.0901C21.9082 49.7084 18.6293 49.9223 16.7421 49.5697C8.00214 45.7125 1.87415 36.8632 1.87415 26.5882ZM25.9697 51.6274C24.1558 51.585 22.3901 51.3423 20.6918 50.9203C22.2108 50.5254 23.9843 49.6853 25.9697 48.1074V51.6274ZM27.5119 48.223C29.3894 49.6892 31.0722 50.4945 32.5276 50.8895C30.9122 51.2999 29.2332 51.5465 27.5119 51.6139V48.223Z" fill="#151E46"/>
<path d="M28.7395 26.9195C29.2504 26.8039 29.7477 26.6459 30.2238 26.4532C29.8653 24.3897 28.9728 22.5054 27.6967 20.9506C27.369 20.5537 27.0181 20.1761 26.6442 19.8254C24.5045 17.8063 21.6207 16.5693 18.4517 16.5693C17.8695 16.5693 17.2989 16.6117 16.7399 16.6926C16.7245 16.9065 16.7168 17.1223 16.7168 17.34C16.7168 17.6464 16.7303 17.9488 16.7592 18.2494C17.3105 18.1569 17.8753 18.1107 18.4517 18.1107C21.214 18.1107 23.7276 19.1916 25.5917 20.9506C25.9714 21.307 26.3223 21.6924 26.6442 22.1028C27.7198 23.4746 28.46 25.1219 28.7395 26.9195Z" fill="#151E46"/>
<path d="M22.3063 28.507C22.3063 27.9579 22.3429 27.4185 22.4123 26.8867C18.7228 25.2856 16.1378 21.6095 16.1378 17.34C16.1378 11.6023 20.8066 6.93588 26.5471 6.93588C31.8886 6.93588 36.3029 10.9761 36.8889 16.1608C36.9333 16.5481 36.9564 16.9411 36.9564 17.34V17.3457C36.9564 17.4768 36.9545 17.6078 36.9487 17.7369C36.9333 18.128 36.8967 18.5152 36.8407 18.8948C36.087 23.8984 31.7595 27.7441 26.5471 27.7441C26.0363 27.7441 25.5351 27.7075 25.0436 27.6362C25.0185 27.9252 25.005 28.218 25.005 28.5147C25.005 28.7421 25.0127 28.9656 25.0281 29.1891C25.5255 29.2527 26.0324 29.2854 26.5471 29.2854C32.4592 29.2854 37.3824 24.9735 38.3308 19.3302C38.3983 18.9449 38.4446 18.5499 38.4715 18.1511C38.4812 18.0182 38.487 17.8852 38.4908 17.7504C38.4966 17.6136 38.4985 17.4768 38.4985 17.34C38.4985 17.0664 38.4889 16.7966 38.4715 16.5288C38.0532 10.3172 32.864 5.39453 26.5471 5.39453C20.2302 5.39453 14.5957 10.7526 14.5957 17.34C14.5957 22.436 17.8033 26.7961 22.3063 28.507Z" fill="#151E46"/>
<path d="M34.8363 18.1107C35.3471 18.1107 35.8483 18.1473 36.3399 18.2186C36.3649 17.9296 36.3784 17.6367 36.3784 17.34C36.3784 17.1127 36.3707 16.8892 36.3553 16.6657C35.858 16.6021 35.351 16.5693 34.8363 16.5693C31.8562 16.5693 29.1266 17.6637 27.0332 19.4728C27.2934 19.6713 27.704 20.02 28.157 20.5422C29.9652 19.0259 32.2957 18.1107 34.8363 18.1107Z" fill="#151E46"/>
</svg>
