<svg width="113" height="76" viewBox="0 0 113 76" fill="none" xmlns="http://www.w3.org/2000/svg">
<path d="M74.6513 74.0732C94.5421 74.0732 110.667 57.9391 110.667 38.0366C110.667 18.1341 94.5421 2 74.6513 2C54.7604 2 38.6357 18.1341 38.6357 38.0366C38.6357 57.9391 54.7604 74.0732 74.6513 74.0732Z" stroke="#00833E" stroke-width="3" stroke-miterlimit="10"/>
<path d="M2 37.9064L27.3821 37.9064" stroke="#00833E" stroke-width="3" stroke-linecap="round" stroke-linejoin="round"/>
<path d="M17.2588 19.0287L31.8387 19.0287" stroke="#00833E" stroke-width="3" stroke-linecap="round" stroke-linejoin="round"/>
<path d="M17.2588 56.9321L31.8387 56.9321" stroke="#00833E" stroke-width="3" stroke-linecap="round" stroke-linejoin="round"/>
<path d="M84.0893 44.32C84.2493 41.76 82.9293 39.88 81.6093 38.76C80.8093 38 79.0493 37.16 78.1293 36.8C77.6893 36.6 77.0493 36.36 76.2093 36.04V28.12C77.8893 28.48 79.0893 29.56 79.7693 31.28L83.6493 29.04C82.2493 25.88 79.7693 24.04 76.2093 23.56V20H73.6093V23.52C71.4093 23.72 69.5293 24.52 68.0493 25.92C66.5693 27.32 65.8093 29.12 65.8093 31.36C65.8093 33.8 66.6493 35.64 68.2893 36.92C70.0093 38.2 71.2093 38.72 73.6093 39.64V47.96C71.1293 47.68 69.4093 46.4 68.4893 44.04L64.5293 46.32C65.9293 50 69.1693 52.2 73.6093 52.48V56H76.2093V52.44C80.8893 51.84 84.0893 48.84 84.0893 44.32ZM70.4093 31.36C70.4093 29.6 71.6493 28.36 73.6093 28.04V35C71.3293 33.92 70.4093 33 70.4093 31.36ZM76.2093 40.64C78.4493 41.64 79.4893 42.6 79.4893 44.36C79.4893 46.12 78.3293 47.48 76.2093 47.92V40.64Z" fill="url(#paint0_linear_536_66)"/>
<defs>
<linearGradient id="paint0_linear_536_66" x1="64.5293" y1="38" x2="84.1025" y2="38" gradientUnits="userSpaceOnUse">
<stop stop-color="#FFCB05"/>
<stop offset="1" stop-color="#FCAF17"/>
</linearGradient>
</defs>
</svg>
