<svg width="134" height="42" viewBox="0 0 134 42" fill="none" xmlns="http://www.w3.org/2000/svg">
<path d="M35.7519 30.0915V32.0901C34.8636 31.3128 33.7532 30.8687 32.6429 30.8687C31.5324 30.8687 30.4221 31.3128 29.6448 32.0901C28.8675 32.8674 28.4234 33.9777 28.4234 35.1992C28.4234 36.3095 28.8675 37.42 29.6448 38.1972C30.4221 38.9744 31.5324 39.4187 32.6429 39.4187C33.198 39.4187 33.7532 39.3076 34.1973 39.0855C34.4194 38.9744 34.7526 38.8634 34.9747 38.6413C35.3078 38.4193 35.5298 38.3082 35.7519 38.0862V40.1959C34.7526 40.7511 33.7532 40.9731 32.6429 41.0842C29.4227 41.0842 26.7578 38.5303 26.7578 35.3102V35.1992C26.7578 33.7557 27.313 32.4233 28.2013 31.3128C29.3117 29.9804 30.9773 29.2031 32.7539 29.2031C33.7532 29.2031 34.7526 29.5362 35.7519 30.0915Z" fill="black"/>
<path d="M48.5239 38.087H43.6379L42.3055 40.8629H40.418L46.0805 28.7598L51.5215 40.8629H49.634L48.5239 38.087ZM47.7465 36.5324L46.0805 32.6461L44.3042 36.5324H47.7465Z" fill="black"/>
<path d="M58.2941 36.1991V40.8627H56.6289V29.4258H58.6276C59.405 29.4258 60.0712 29.4258 60.8478 29.6479C61.2925 29.7589 61.7364 30.092 62.1803 30.4251C62.8465 31.0914 63.18 31.9797 63.18 32.8679C63.18 33.8673 62.8465 34.7556 62.1803 35.3108C61.4037 35.9771 60.4039 36.3102 59.405 36.1991H58.2941ZM58.2941 34.6446H58.9603C60.5151 34.6446 61.2925 34.0894 61.2925 32.8679C61.2925 31.6466 60.5151 31.0914 58.8492 31.0914H58.2941V34.6446Z" fill="black"/>
<path d="M70.175 29.4258V40.8627H68.5098V29.4258H70.175Z" fill="black"/>
<path d="M79.7245 31.0914V40.8627H77.9481V31.0914H75.2832V29.4258H82.2782V31.0914H79.7245Z" fill="black"/>
<path d="M93.4947 38.087H88.6096L87.2771 40.8629H85.5L91.1633 28.7598L96.6043 40.8629H94.7168L93.4947 38.087ZM92.8285 36.5324L91.1633 32.6461L89.387 36.5324H92.8285Z" fill="black"/>
<path d="M103.377 29.4258V39.1971H106.708V40.8627H101.6V29.4258H103.377Z" fill="black"/>
<path d="M0 23.5403L4.55259 0.111328L11.9921 16.9891L19.7648 0.111328L23.8732 23.5403H20.5421L18.4324 10.3269L11.9921 24.5397L5.77403 10.3269L3.44223 23.5403H0Z" fill="black"/>
<path d="M40.5292 4.88638H31.7572V10.1052H40.1957V13.2142H31.7572V20.5428H40.5292V23.6519H28.5371V1.77734H40.5292V4.88638Z" fill="black"/>
<path d="M48.1905 10.4383L56.6299 1.77734H61.0712L51.1889 11.6598L61.0712 23.5408H56.6299L48.8567 13.8805L48.1905 14.5467V23.5408H44.8594V1.77734H48.1905V10.4383Z" fill="black"/>
<path d="M88.6074 23.5406V0.222656L104.486 16.8784V1.77721H107.817V24.8731L91.9386 8.32841V23.5406H88.6074Z" fill="black"/>
<path d="M124.476 12.2138H133.47V12.88C133.47 14.3235 133.248 15.767 132.915 17.2105C132.471 18.4319 131.916 19.5423 131.027 20.5416C129.028 22.7623 126.252 24.0948 123.255 23.9838C120.367 23.9838 117.48 22.7623 115.482 20.6527C113.372 18.543 112.15 15.6559 112.15 12.6579C112.15 9.65988 113.261 6.77287 115.482 4.66317C117.591 2.44239 120.479 1.33203 123.587 1.33203C125.253 1.33203 126.919 1.66515 128.362 2.33137C129.917 3.2197 131.361 4.33006 132.582 5.66252L130.25 7.8833C128.806 5.66252 126.364 4.33006 123.699 4.33006C121.478 4.21905 119.369 5.1073 117.925 6.66186C116.37 8.21642 115.482 10.3261 115.593 12.5469C115.482 14.8787 116.481 16.9884 118.146 18.543C119.59 19.9864 121.478 20.7637 123.476 20.7637C125.031 20.7637 126.586 20.2085 127.807 19.0981C129.028 18.0988 129.806 16.6553 130.028 15.1007H124.587L124.476 12.2138Z" fill="black"/>
<path d="M78.3928 10.5489C78.3928 10.5489 76.838 11.4372 79.1702 12.1034C81.5016 12.7696 85.1662 14.6573 82.7237 16.9891C80.5027 18.9878 74.0627 20.4313 70.9531 24.5397C71.8417 24.7618 72.7302 24.8728 73.7292 24.8728C80.3915 24.8728 85.7213 19.543 85.7213 12.8807C85.7213 11.7703 85.6101 10.771 85.2774 9.77161C82.9452 9.54959 80.6138 9.8827 78.3928 10.5489Z" fill="#B70004"/>
<path d="M72.1727 16.5451C77.9472 16.212 79.5012 14.7685 77.0586 13.5471C75.9485 13.103 74.8376 12.4367 73.7275 11.8815C72.7285 11.2153 71.9511 9.10561 84.7206 7.88416C81.9446 1.7771 74.8376 -0.887847 68.8415 1.7771C62.8455 4.44201 60.0702 11.5484 62.7351 17.6555C62.9567 18.0997 63.179 18.6548 63.5117 19.099C66.1766 17.6555 69.0639 16.7672 72.1727 16.5451Z" fill="#B70004"/>
</svg>
