<svg width="162" height="57" viewBox="0 0 162 57" fill="none" xmlns="http://www.w3.org/2000/svg">
<path d="M62.4851 14.7881L73.8008 44.0829H80.7761L92.0399 14.7881H84.8661L77.2375 36.1253L69.6579 14.9171L62.4851 14.7881Z" fill="#224798"/>
<path d="M162 20.8461C162 20.8461 158.38 14.3697 150.094 14.3342C141.809 14.2986 134.649 19.9031 134.649 29.8578C134.649 39.8125 143.261 44.1316 148.374 44.4607C153.486 44.7899 159.073 43.226 162 37.9586C159.882 36.5423 157.178 34.5416 157.178 34.5416C157.178 34.5416 155.569 38.2868 150.823 38.3224C146.077 38.358 141.366 35.965 141.366 28.8392C141.366 21.7135 151.368 16.6961 157.285 24.2221C160.208 22.2917 162 20.8461 162 20.8461Z" fill="#224798"/>
<path d="M133.043 14.8418H115.92V44.19H133.391V38.1584H122.518V32.327H131.278V26.3756H122.536V20.7888H133.056L133.043 14.8418Z" fill="#224798"/>
<path d="M112.199 20.4812C112.199 20.4812 109.728 14.334 102.392 14.334C95.0556 14.334 91.2748 20.3655 93.849 25.8188C96.4231 31.2721 103.185 30.7517 105.732 33.5895C107.073 35.2264 106.197 38.0109 103.516 38.5536C100.834 39.0962 98.1973 37.2369 97.3214 34.6749C94.1484 36.1783 92.0408 37.1587 92.0408 37.1587C92.0408 37.1587 93.3261 43.1261 100.065 44.2737C106.805 45.4213 112.74 41.9608 113.07 36.1427C113.401 30.3247 109.182 28.4565 103.516 26.1435C100.879 25.165 98.2832 23.4614 100.146 21.0995C101.938 18.8265 106.563 20.7525 107.27 23.368C109.2 22.2559 112.199 20.4812 112.199 20.4812Z" fill="#224798"/>
<path d="M56.2087 18.2478C57.4306 12.0205 57.2831 7.76019 57.2831 7.76019C57.2831 7.76019 31.6844 -9.60496 0.0255637 7.61786C0.0255637 7.61786 -1.94082 38.8965 28.6186 57C40.4321 50.3849 47.3841 41.2726 51.4715 32.6843C48.1627 29.351 42.7158 26.4251 39.246 25.2766C37.6103 28.2746 35.4115 33.8346 28.565 39.7238C21.1195 33.1852 15.9068 22.8213 15.0344 16.3716C29.3274 11.5054 42.1241 16.3716 42.1241 16.3716C42.1241 16.3716 41.7576 18.2576 40.8459 20.8819C46.8738 22.952 51.1221 26.0016 53.4576 27.9943C54.0752 26.3432 54.5927 24.7357 55.0271 23.1949C52.0767 20.7841 48.2494 18.8038 46.5842 18.0263C46.7898 17.3946 47.1473 15.0639 47.3439 13.3558C28.3504 5.28708 13.388 11.7189 9.8128 13.2135C9.8843 16.2648 11.8239 22.6967 11.8239 22.6967C11.8239 22.6967 9.74129 23.8977 7.69446 25.0898C6.78278 23.1237 5.20967 16.7719 4.73595 10.4824C29.2353 -1.73193 51.2678 9.36149 52.3314 10.4201C52.3582 11.4521 52.2241 12.8754 51.8666 15.5176C52.6889 15.8601 54.7197 17.2185 56.2087 18.2478ZM13.5042 27.127C13.5042 27.127 19.0914 39.1198 28.6445 45.7723C37.7247 38.4321 39.9164 33.7812 41.418 31.3526C42.6246 31.7084 45.3775 33.7279 45.3775 33.7279C45.3775 33.7279 40.9451 43.7511 28.6445 51.496C16.023 43.9726 9.30332 29.6712 9.30332 29.6712L13.5042 27.127Z" fill="#224798"/>
</svg>
